# xmcd
#
# Track frame offsets:
#	150
#	27881
#	48425
#	68314
#	81868
#	126023
#	147394
#	161459
#	181664
#	232216
#	273457
#	308860
#	333534
#
# Disc length: 4785 seconds
#
# Revision: 1
# Processed by: cddbd v1.5.1PL2 Copyright (c) Steve Scherf et al.
# Submitted via: EasyCDDAExtractor 8.0.2.1
#
DISCID=af12af0d
DTITLE=Gillan - St George's Hall Bradford 19-11-82
DYEAR=1982
DGENRE=Hard Rock
TTITLE0=What's The MAtter
TTITLE1=Bluesy Blue Sea
TTITLE2=Black Night
TTITLE3=Trouble
TTITLE4=Born To Kill
TTITLE5=Mutally Assured Destruction
TTITLE6=Hadeley Bop Bop
TTITLE7=No Laughing In Heaven
TTITLE8=Dead Of Night
TTITLE9=Bite The Bullet
TTITLE10=Smoke On The Water
TTITLE11=New Orleans
TTITLE12=Helter Skelter
EXTD=
EXTT0=
EXTT1=
EXTT2=
EXTT3=
EXTT4=
EXTT5=
EXTT6=
EXTT7=
EXTT8=
EXTT9=
EXTT10=
EXTT11=
EXTT12=
PLAYORDER=
